<?xml version="1.0" standalone="no"?>
<!DOCTYPE svg PUBLIC "-//W3C//DTD SVG 20010904//EN"
 "http://www.w3.org/TR/2001/REC-SVG-20010904/DTD/svg10.dtd">
<svg version="1.0" xmlns="http://www.w3.org/2000/svg"
 width="150.000000pt" height="150.000000pt" viewBox="0 0 150.000000 150.000000"
 preserveAspectRatio="xMidYMid meet">
<metadata>
Created by potrace 1.16, written by Peter Selinger 2001-2019
</metadata>
<g transform="translate(0.000000,150.000000) scale(0.100000,-0.100000)"
fill="#000000" stroke="none">
<path d="M10 750 l0 -750 745 0 745 0 0 750 0 750 -745 0 -745 0 0 -750z
m1460 0 l0 -720 -720 0 -720 0 0 720 0 720 720 0 720 0 0 -720z"/>
<path d="M100 750 l0 -670 350 0 350 0 0 670 0 670 -350 0 -350 0 0 -670z
m417 189 c38 -18 93 -78 93 -101 0 -18 -50 -7 -60 13 -31 56 -135 77 -198 39
-58 -35 -79 -126 -46 -196 17 -35 81 -74 122 -74 37 0 86 25 114 59 29 33 68
42 68 15 0 -29 -82 -101 -130 -114 -123 -33 -240 56 -240 183 0 51 20 109 48
141 49 54 155 71 229 35z"/>
<path d="M900 765 l0 -185 55 0 55 0 0 70 0 70 55 0 55 0 0 -70 0 -70 55 0 55
0 0 185 0 185 -55 0 -55 0 0 -65 0 -65 -55 0 -55 0 0 65 0 65 -55 0 -55 0 0
-185z"/>
</g>
</svg>
